<?xml version="1.0" standalone="no"?>
<!DOCTYPE svg PUBLIC "-//W3C//DTD SVG 20010904//EN"
 "http://www.w3.org/TR/2001/REC-SVG-20010904/DTD/svg10.dtd">
<svg version="1.0" xmlns="http://www.w3.org/2000/svg"
 width="946.000000pt" height="946.000000pt" viewBox="0 0 946.000000 946.000000"
 preserveAspectRatio="xMidYMid meet">
<metadata>
Created by potrace 1.11, written by Peter Selinger 2001-2013
</metadata>
<g transform="translate(0.000000,946.000000) scale(0.100000,-0.100000)"
fill="#000000" stroke="none">
<path d="M4367 7304 c-1 -1 -52 -5 -112 -8 -61 -4 -132 -8 -160 -11 -91 -8
-189 -17 -234 -21 -24 -2 -60 -6 -80 -9 -20 -3 -88 -12 -151 -20 -63 -8 -126
-17 -140 -19 -14 -3 -54 -10 -90 -16 -772 -132 -1479 -386 -2040 -733 -405
-250 -744 -570 -941 -887 -96 -155 -188 -361 -219 -490 -6 -25 -13 -54 -16
-65 -54 -217 -50 -508 10 -742 36 -140 123 -349 187 -448 10 -16 23 -39 28
-50 5 -11 35 -56 66 -100 235 -328 569 -622 980 -861 27 -16 59 -34 70 -41 38
-22 402 -203 408 -203 4 0 30 -11 59 -25 28 -14 55 -25 60 -25 5 0 27 -9 51
-19 132 -60 604 -214 751 -246 12 -2 59 -13 105 -25 69 -17 190 -43 302 -65
52 -11 317 -54 369 -60 30 -4 63 -9 72 -10 9 -2 48 -7 85 -10 37 -4 79 -8 93
-11 14 -2 61 -6 105 -10 44 -3 96 -8 115 -9 257 -25 976 -26 1205 -1 17 2 66
6 110 10 79 7 130 12 210 22 22 3 58 7 80 10 545 65 1263 254 1691 444 27 12
76 34 109 48 690 306 1256 772 1524 1254 178 321 246 623 218 968 -30 371
-211 749 -517 1085 -45 50 -99 105 -119 123 -20 19 -54 51 -76 71 -57 52 -188
158 -270 218 -76 55 -301 203 -309 203 -3 0 -29 14 -58 31 -339 201 -840 399
-1318 523 -96 25 -186 47 -200 50 -14 3 -77 16 -140 30 -103 22 -355 66 -466
81 -23 3 -59 8 -80 11 -22 3 -55 7 -74 8 -19 2 -57 6 -85 10 -101 12 -138 15
-380 32 -85 6 -783 13 -788 8z"/>
</g>
</svg>
